<?xml version="1.0" encoding="UTF-8"?>
<!DOCTYPE svg PUBLIC "-//W3C//DTD SVG 1.1//EN" "http://www.w3.org/Graphics/SVG/1.1/DTD/svg11.dtd">
<svg xmlns="http://www.w3.org/2000/svg" version="1.1" width="38px" height="37px" style="shape-rendering:geometricPrecision; text-rendering:geometricPrecision; image-rendering:optimizeQuality; fill-rule:evenodd; clip-rule:evenodd" xmlns:xlink="http://www.w3.org/1999/xlink">
<g><path style="opacity:0.812" fill="#fefefe" d="M 1.5,-0.5 C 4.83333,-0.5 8.16667,-0.5 11.5,-0.5C 11.8333,2.16667 12.1667,4.83333 12.5,7.5C 19.8409,7.33368 27.1742,7.50034 34.5,8C 35.5266,8.51328 36.5266,9.01328 37.5,9.5C 37.5,11.8333 37.5,14.1667 37.5,16.5C 36.1332,20.078 34.4665,23.578 32.5,27C 25.5,27.6667 18.5,27.6667 11.5,27C 10.2986,26.0975 9.46524,24.9308 9,23.5C 8.16863,16.854 7.66863,10.1874 7.5,3.5C 5.4727,3.66212 3.4727,3.49546 1.5,3C 0.315695,1.85453 0.315695,0.687867 1.5,-0.5 Z M 12.5,13.5 C 18.979,12.5093 25.6457,12.176 32.5,12.5C 32.0015,15.8286 31.0015,18.9953 29.5,22C 24.1771,22.4994 18.8437,22.666 13.5,22.5C 13.81,19.2869 13.4767,16.2869 12.5,13.5 Z"/></g>
<g><path style="opacity:0.77" fill="#fefefe" d="M 14.5,36.5 C 13.1667,36.5 11.8333,36.5 10.5,36.5C 8.07435,31.028 9.74102,28.8613 15.5,30C 16.8557,32.4141 16.5224,34.5807 14.5,36.5 Z"/></g>
<g><path style="opacity:0.789" fill="#fefefe" d="M 30.5,36.5 C 29.5,36.5 28.5,36.5 27.5,36.5C 24.0268,31.3591 25.3601,29.1924 31.5,30C 32.8557,32.4141 32.5224,34.5807 30.5,36.5 Z"/></g>
</svg>
