<svg width="41" height="40" viewBox="0 0 41 40" fill="none" xmlns="http://www.w3.org/2000/svg">
<path opacity="0.959" fill-rule="evenodd" clip-rule="evenodd" d="M16.3002 0.0416769C18.0568 -0.159214 19.5512 0.366145 20.7834 1.61776C22.4224 -0.00987957 24.3174 -0.39617 26.4683 0.458875C28.252 1.58023 29.0377 3.20266 28.8254 5.32618C28.4248 7.01067 27.6699 8.50949 26.5607 9.82265C29.7164 10.8227 32.8901 11.7808 36.0818 12.6967C36.4631 12.7619 36.7866 12.9319 37.0524 13.2066C38.3692 15.0136 39.6633 16.8369 40.9347 18.6765C41.108 19.2801 40.9385 19.7592 40.4263 20.1135C39.3861 20.5582 38.3385 20.9754 37.2835 21.3651C37.2989 25.4445 37.2835 29.5237 37.2372 33.6029C37.1737 34.1303 36.8811 34.4548 36.3591 34.5764C31.1793 36.4248 25.9873 38.2327 20.7834 40C15.4156 38.1967 10.0696 36.327 4.74552 34.391C4.52426 34.21 4.38561 33.9782 4.32955 33.6956C4.29875 29.6164 4.26793 25.5371 4.23712 21.4578C3.10311 20.9655 1.97846 20.4556 0.863157 19.9281C0.541426 19.5503 0.464395 19.1331 0.632063 18.6765C1.96743 16.75 3.33858 14.8494 4.74552 12.9748C8.11878 11.9127 11.5081 10.9084 14.9136 9.96171C14.6401 9.41463 14.3166 8.88924 13.943 8.38563C12.9937 6.98192 12.5931 5.43674 12.7413 3.7501C13.1662 1.7636 14.3524 0.527462 16.3002 0.0416769ZM16.6699 2.17402C17.8468 2.13836 18.8174 2.571 19.5817 3.47197C19.948 4.2816 20.5489 4.54429 21.3842 4.26001C21.7503 3.71347 22.1816 3.21901 22.6784 2.77664C23.69 2.06321 24.7376 2.0014 25.8212 2.59122C26.6179 3.38205 26.8798 4.32461 26.6069 5.41889C26.2116 6.58352 25.6261 7.63424 24.8506 8.57105C23.5903 10.0515 22.2347 11.4421 20.7834 12.743C18.8862 11.119 17.2223 9.29568 15.7918 7.2731C15.2574 6.45339 14.9339 5.55719 14.8212 4.5845C14.8642 3.31852 15.4804 2.51502 16.6699 2.17402ZM16.3002 11.7232C16.4271 11.7087 16.5504 11.7241 16.6699 11.7696C17.4015 12.5097 18.141 13.2514 18.8884 13.9946C19.3484 14.4106 19.8414 14.7815 20.3674 15.1072C20.8475 15.2223 21.2789 15.1296 21.6615 14.829C22.8179 13.8081 23.958 12.7728 25.0817 11.7232C27.602 12.4166 30.0978 13.1737 32.5691 13.9946C28.6281 15.3792 24.6842 16.7543 20.7372 18.1202C16.828 16.7361 12.9149 15.3608 8.99764 13.9946C11.4288 13.2074 13.863 12.4503 16.3002 11.7232ZM5.76233 15.1535C10.2006 16.7043 14.6376 18.265 19.0733 19.8354C18.0359 21.2225 16.9882 22.5977 15.9304 23.961C11.7054 22.1931 7.48407 20.4161 3.26653 18.6302C4.11867 17.4825 4.9506 16.3236 5.76233 15.1535ZM35.6196 15.1535C35.7116 15.1455 35.7886 15.1765 35.8507 15.2462C36.6543 16.3459 37.44 17.4584 38.2078 18.5838C34.0498 20.428 29.8593 22.2204 25.6364 23.961C24.5385 22.6276 23.4908 21.2524 22.4935 19.8354C26.8884 18.2994 31.2638 16.7387 35.6196 15.1535ZM6.50183 22.3849C9.49966 23.6088 12.4884 24.8604 15.4682 26.1397C15.9088 26.3539 16.371 26.4157 16.8548 26.3251C17.8271 25.1332 18.7669 23.9124 19.6741 22.6631C19.7358 27.5767 19.7358 32.4904 19.6741 37.4041C15.2991 35.8126 10.9083 34.2675 6.50183 32.7685C6.50183 29.3074 6.50183 25.8461 6.50183 22.3849ZM34.8801 22.3849C35.0644 25.8138 35.126 29.275 35.065 32.7685C30.6585 34.2675 26.2677 35.8126 21.8926 37.4041C21.831 32.4904 21.831 27.5767 21.8926 22.6631C22.7246 23.8065 23.5565 24.95 24.3884 26.0934C24.7605 26.3616 25.1765 26.4388 25.6364 26.3251C28.7365 25.0325 31.8178 23.719 34.8801 22.3849Z" fill="white"/>
</svg>
